<?xml version="1.0" encoding="utf-8" standalone="yes" ?>
<rss version="2.0" xmlns:atom="http://www.w3.org/2005/Atom">
  <channel>
    <title>Ffmpeg on 好久不见</title>
    <link>http://domain.yqjdcyy.com/tags/ffmpeg/</link>
    <description>Recent content in Ffmpeg on 好久不见</description>
    <generator>Hugo -- gohugo.io</generator>
    <language>zh-CN</language>
    <copyright>Powered by [姚清居](http://www.domain.yqjdcyy.com).</copyright>
    <lastBuildDate>Fri, 01 Jun 2018 12:10:00 +0800</lastBuildDate>
    
	<atom:link href="http://domain.yqjdcyy.com/tags/ffmpeg/index.xml" rel="self" type="application/rss+xml" />
    
    
    <item>
      <title>FFmpeg.2Gif.Ass</title>
      <link>http://domain.yqjdcyy.com/post/ffmpeg.2gif.ass/</link>
      <pubDate>Fri, 01 Jun 2018 12:10:00 +0800</pubDate>
      
      <guid>http://domain.yqjdcyy.com/post/ffmpeg.2gif.ass/</guid>
      <description> [TOC]
字幕文件 安装 aegisub  aegisub.官网  打开视频  注意选择合适大小  编辑  /视频/打开视频 试听 &amp;amp; 添加行记录 &amp;amp; 更新时间点、字幕内容和样式     指令 模板  ffmpeg -i {video_path} -r 8 -vf ass={ass_path},scale=300:-1 -y {gif_path}  示例  cd path ffmpeg -i ‪template.mp4 -r 8 -vf ass=‪template.ass,scale=300:-1 -y template.gif  代码参考  sorry.python - render.py  Reference Project  East196/sorrypy xtyxtyx/sorry  Software  aegisub 【教程】手把手教你用aegisub写字幕（基础向）  </description>
    </item>
    
    <item>
      <title>小丸压缩视频转M3U8异常</title>
      <link>http://domain.yqjdcyy.com/post/%E5%B0%8F%E4%B8%B8%E5%8E%8B%E7%BC%A9%E8%A7%86%E9%A2%91%E8%BD%ACm3u8%E5%BC%82%E5%B8%B8/</link>
      <pubDate>Sat, 03 Mar 2018 18:07:46 +0800</pubDate>
      
      <guid>http://domain.yqjdcyy.com/post/%E5%B0%8F%E4%B8%B8%E5%8E%8B%E7%BC%A9%E8%A7%86%E9%A2%91%E8%BD%ACm3u8%E5%BC%82%E5%B8%B8/</guid>
      <description>[TOC]
异常反馈  2 frames left in the queue on closing  Command  原始转换请求转换语句 &amp;gt; /usr/local/ffmpeg/bin/ffmpeg -i /static/cdn/prod/video/38ad11be-f1c7-4dea-9ce0-6ed13a93d906.mp4 -vcodec libx264 -r 24 -vf scale=640:360,pad=640:360:0:0:black -acodec aac -ar 22050 -ab 24k -map 0 -f ssegment -segment_format mpegts -segment_list /static/cdn/prod/video/38ad11be-f1c7-4dea-9ce0-6ed13a93d906_640x360/index.m3u8 -segment_time 10 /static/cdn/prod/video/38ad11be-f1c7-4dea-9ce0-6ed13a93d906_640x360/%04d.ts  Info  /usr/local/ffmpeg/bin/ffprobe -i /static/cdn/prod/video/38ad11be-f1c7-4dea-9ce0-6ed13a93d906.mp4 客户使用「小丸」进行视频压缩，添加末帧图片作为视频流，导致转 M3U8 时缓存不足引起转换失败  理解为 FFMPEG 进行转码时，对各通道流进行同步缓存 而图片流中图片仅存在于末帧，导致需要缓存的数据过多引发如上异常 仅为与同事探讨的可能，如有知情，请烦请知会 &amp;gt; Stream #0:0(und): Video: h264 (High) (avc1 / 0x31637661), yuv420p(tv, bt709/unknown/unknown), 1920x1080, 340 kb/s, 25 fps, 25 tbr, 25 tbn, 50 tbc (default) Stream #0:1(und): Audio: aac (LC) (mp4a / 0x6134706D), 48000 Hz, stereo, fltp, 129 kb/s Stream #0:2: Video: png, rgba(pc), 1920x1080, 90k tbr, 90k tbn, 90k tbc   Ask  ffmpeg -max_muxing_queue_size [bug][regression] Too many packets buffered for output stream Conversion failed!</description>
    </item>
    
    <item>
      <title>FFmpeg.阅读笔记</title>
      <link>http://domain.yqjdcyy.com/post/ffmpeg.%E9%98%85%E8%AF%BB%E7%AC%94%E8%AE%B0/</link>
      <pubDate>Thu, 23 Nov 2017 22:07:46 +0800</pubDate>
      
      <guid>http://domain.yqjdcyy.com/post/ffmpeg.%E9%98%85%E8%AF%BB%E7%AC%94%E8%AE%B0/</guid>
      <description>[TOC]
简介  FFmpeg ffmpeg FFmpeg Formats Documentation FFmpeg - wiki FFmpeg - github 使用ffmpeg将视频转ts  概要  ffmpeg [global_options] {[input_file_options] -i input_url} ... {[output_file_options] output_url} ...  流程  _______ ______________ | | | | | input | demuxer | encoded data | decoder | file | ---------&amp;gt; | packets | -----+ |_______| |______________| | v _________ | | | decoded | | frames | |_________| ________ ______________ | | | | | | | output | &amp;lt;-------- | encoded data | &amp;lt;----+ | file | muxer | packets | encoder |________| |______________|  选项 实例 裁剪  指令  ffmpeg -i old.</description>
    </item>
    
  </channel>
</rss>